<?xml version="1.0" encoding="UTF-8"?>
<svg width="64px" height="64px" viewBox="0 0 64 64" version="1.1" xmlns="http://www.w3.org/2000/svg" xmlns:xlink="http://www.w3.org/1999/xlink">
    <title>logo</title>
    <g id="Standards" stroke="none" stroke-width="1" fill="none" fill-rule="evenodd">
        <g id="screen-large" transform="translate(-124.000000, -80.000000)" fill="#FF4C4C" fill-rule="nonzero">
            <g id="logo" transform="translate(124.000000, 80.000000)">
                <path d="M11.9826703,15.4590452 C11.9826703,26.0351728 20.3796318,32.4449471 28.0325588,36.2908117 C34.409998,39.4956988 42.4880876,44.6235183 42.4880876,53.2767136 C42.4880876,58.2640155 39.3375668,63.34445 32.5174158,63.9962579 L32.0152568,64 C30.8073536,64 29.6150741,63.9327674 28.441921,63.8018226 C20.6422706,62.191032 14.646769,53.5661052 12.7267049,47.2942576 C11.8763797,46.1191323 9.43169466,46.2259618 8.68766009,47.6147463 C8.68766009,49.8408473 8.81741603,52.1070756 9.05551748,54.2474274 C3.45109164,48.4522366 0,40.5423936 0,31.8224181 C0,20.288881 6.03741469,10.1726071 15.1091163,4.49195106 C13.0345185,7.57721921 11.946013,11.2957706 11.9826703,15.4590452 Z M36.0674393,0 C36.2583228,0 36.4472895,0.00484234221 36.6343443,0.0143699179 C37.6570799,0.164502445 38.6642943,0.362783525 39.653428,0.607182165 C45.1767689,2.5415895 48.5989324,8.70133999 50.1041852,13.2332776 C51.0612361,14.3004775 53.7197105,14.1937575 54.2514055,12.9131177 C54.2514055,11.4093848 54.2043735,9.96701239 54.122179,8.6048609 L54.1227794,8.60425761 C60.2097691,14.4555235 64,22.6940399 64,31.8209839 C64,39.8532758 61.0644206,47.1974697 56.2112417,52.8319382 C56.6709105,51.0908709 56.9098804,49.2349633 56.9098804,47.2769517 C56.9098804,35.5377537 48.5091005,29.3479948 41.9160834,25.8262355 L34.8977104,22.0910361 C29.5807612,19.3163166 25.2208628,14.8340774 25.2208628,9.92495823 C25.2208628,4.58895919 29.0490663,0 36.0674393,0 Z" id="Shape"></path>
            </g>
        </g>
    </g>
</svg>