<?xml version="1.0" encoding="UTF-8"?>
<svg width="48px" height="48px" viewBox="0 0 48 48" version="1.1" xmlns="http://www.w3.org/2000/svg" xmlns:xlink="http://www.w3.org/1999/xlink">
    <title>Combined Shape</title>
    <g id="Layouts" stroke="none" stroke-width="1" fill="none" fill-rule="evenodd">
        <g id="screen-large" transform="translate(-80.000000, -88.000000)" fill="#000000" fill-rule="nonzero">
            <g id="Group-17" transform="translate(80.000000, 80.000000)">
                <path d="M11.3318372,11.3689633 C9.77588886,13.6829144 8.95950975,16.4718279 8.98700272,19.5942839 C8.98700272,27.5263796 15.2847239,32.3337103 21.0244191,35.2181087 C25.8074985,37.6217741 31.8660657,41.4676387 31.8660657,47.9575352 C31.8660657,51.6980116 29.5031751,55.5083375 24.3880618,55.9971934 L24.0114426,56 C23.1055152,56 22.2113056,55.9495755 21.3314407,55.851367 C15.481703,54.643274 10.9850767,48.1745789 9.54502864,43.4706932 C8.90728475,42.5893492 7.073771,42.6694714 6.51574507,43.7110597 C6.51574507,45.3806354 6.61306202,47.0803067 6.79163811,48.6855706 C2.58831873,44.3391774 0,38.4067952 0,31.8668136 C0,23.2166607 4.52806102,15.6294554 11.3318372,11.3689633 Z M27.0505794,8 C27.1937421,8 27.3354671,8.00363176 27.4757583,8.01077744 C28.2428099,8.12337683 28.9982207,8.27208764 29.740071,8.45538662 C33.8825767,9.90619212 36.4491993,14.526005 37.5781389,17.9249582 C38.2959271,18.7253581 40.2897829,18.6453181 40.6885541,17.6848383 C40.6885541,16.5570386 40.6532801,15.4752593 40.5916342,14.4536457 L40.5920845,14.4531932 C45.1573268,18.8416426 48,25.0205299 48,31.8657379 C48,37.8899568 45.7983155,43.3981023 42.1584313,47.6239536 C42.5031829,46.3181532 42.6824103,44.9262225 42.6824103,43.4577137 C42.6824103,34.6533153 36.3818254,30.0109961 31.4370626,27.3696766 L26.1732828,24.5682771 C22.1855709,22.4872374 18.9156471,19.125558 18.9156471,15.4437187 C18.9156471,11.4417194 21.7867997,8 27.0505794,8 Z" id="Combined-Shape"></path>
            </g>
        </g>
    </g>
</svg>